<svg xmlns="http://www.w3.org/2000/svg" viewBox="0 0 900 480" role="img" aria-labelledby="t d">
<title id="t">Simple DC motor</title><desc id="d">A rectangular coil between magnetic poles is connected to a split-ring commutator and brushes.</desc>
<defs><marker id="a" markerWidth="12" markerHeight="12" refX="10" refY="6" orient="auto"><path d="M0 0L12 6L0 12z" fill="#17324d"/></marker></defs>
<rect width="900" height="480" fill="#fff"/><rect x="55" y="105" width="140" height="250" fill="#d1495b" stroke="#111" stroke-width="4"/><text x="108" y="245" font-family="Arial" font-size="54" font-weight="700">N</text><rect x="705" y="105" width="140" height="250" fill="#315b7d" stroke="#111" stroke-width="4"/><text x="758" y="245" font-family="Arial" font-size="54" font-weight="700" fill="#fff">S</text><polygon points="325,145 600,190 565,340 290,295" fill="none" stroke="#d68b00" stroke-width="12"/><line x1="305" y1="220" x2="305" y2="85" stroke="#17324d" stroke-width="8" marker-end="url(#a)"/><line x1="580" y1="255" x2="580" y2="395" stroke="#17324d" stroke-width="8" marker-end="url(#a)"/><line x1="445" y1="245" x2="445" y2="410" stroke="#111" stroke-width="8"/><path d="M400 410A45 45 0 0 0 445 455" fill="none" stroke="#d1495b" stroke-width="16"/><path d="M490 410A45 45 0 0 1 445 455" fill="none" stroke="#315b7d" stroke-width="16"/><rect x="355" y="425" width="35" height="50" fill="#333"/><rect x="500" y="425" width="35" height="50" fill="#333"/></svg>