<svg xmlns="http://www.w3.org/2000/svg" viewBox="0 0 1000 500" role="img" aria-labelledby="t d">
<title id="t">Young double-slit interference</title><desc id="d">Light passes through two slits and forms evenly spaced bright fringes on a screen.</desc>
<defs><marker id="a" markerWidth="12" markerHeight="12" refX="10" refY="6" orient="auto"><path d="M0 0L12 6L0 12z" fill="#17324d"/></marker></defs>
<rect width="1000" height="500" fill="white"/><circle cx="85" cy="250" r="22" fill="#d1495b"/><text x="38" y="305" font-family="Arial" font-size="26" font-weight="700">laser</text>
<line x1="110" y1="250" x2="320" y2="250" stroke="#d1495b" stroke-width="7" marker-end="url(#a)"/>
<line x1="350" y1="55" x2="350" y2="205" stroke="#333" stroke-width="18"/><line x1="350" y1="230" x2="350" y2="270" stroke="#333" stroke-width="18"/><line x1="350" y1="295" x2="350" y2="445" stroke="#333" stroke-width="18"/>
<circle cx="350" cy="218" r="7" fill="#d1495b"/><circle cx="350" cy="282" r="7" fill="#d1495b"/>
<path d="M355 218 Q580 55 845 80 M355 218 Q600 210 845 250 M355 218 Q580 380 845 420 M355 282 Q580 55 845 80 M355 282 Q600 290 845 250 M355 282 Q580 380 845 420" fill="none" stroke="#1677b8" stroke-width="3" opacity=".75"/>
<line x1="870" y1="45" x2="870" y2="455" stroke="#333" stroke-width="12"/>
<g stroke="#d1495b" stroke-width="12"><line x1="870" y1="80" x2="905" y2="80"/><line x1="870" y1="165" x2="905" y2="165"/><line x1="870" y1="250" x2="905" y2="250"/><line x1="870" y1="335" x2="905" y2="335"/><line x1="870" y1="420" x2="905" y2="420"/></g>
<line x1="935" y1="250" x2="935" y2="335" stroke="#17324d" stroke-width="4" marker-end="url(#a)"/><text x="945" y="300" font-family="Arial" font-size="27" font-weight="700">Δy</text>
<text x="285" y="35" font-family="Arial" font-size="26" font-weight="700">slit separation d</text>
</svg>